<svg xmlns="http://www.w3.org/2000/svg" xmlns:xlink="http://www.w3.org/1999/xlink" version="1.1" width="256" height="256" viewBox="0 0 256 256" xml:space="preserve">

<defs>
</defs>
<g style="stroke: none; stroke-width: 0; stroke-dasharray: none; stroke-linecap: butt; stroke-linejoin: miter; stroke-miterlimit: 10; fill: rgb(39,142,165); fill-rule: nonzero; opacity: 1;" transform="translate(0 -2.842170943040401e-14) scale(2.81 2.81)" >
	<path d="M 45 90 C 20.187 90 0 69.814 0 45 C 0 20.187 20.187 0 45 0 c 24.814 0 45 20.187 45 45 C 90 69.814 69.814 90 45 90 z M 45 5.625 C 23.289 5.625 5.625 23.289 5.625 45 c 0 21.712 17.664 39.375 39.375 39.375 c 21.712 0 39.375 -17.663 39.375 -39.375 C 84.375 23.289 66.712 5.625 45 5.625 z" style="stroke: none; stroke-width: 1; stroke-dasharray: none; stroke-linecap: butt; stroke-linejoin: miter; stroke-miterlimit: 10; fill: rgb(39,142,165); fill-rule: nonzero; opacity: 1;" transform=" matrix(1 0 0 1 0 0) " stroke-linecap="round" />
</g>
<g style="stroke: none; stroke-width: 0; stroke-dasharray: none; stroke-linecap: butt; stroke-linejoin: miter; stroke-miterlimit: 10; fill: none; fill-rule: nonzero; opacity: 1;" transform="translate(16.828028658104557 63.89856429612743) rotate(-15) scale(2.02 2.02)" >
	<path d="M 88 12.43 H 2 c -1.104 0 -2 0.896 -2 2 V 75.57 c 0 1.104 0.896 2 2 2 h 86 c 1.104 0 2 -0.896 2 -2 V 14.43 C 90 13.325 89.104 12.43 88 12.43 z M 12.763 43 H 4 v -6.75 h 8.763 V 43 z M 12.763 47 v 6.75 H 4 V 47 H 12.763 z M 12.763 32.25 H 4 V 25.5 h 8.763 V 32.25 z M 4 57.75 h 8.763 v 6.75 H 4 V 57.75 z M 16.763 16.43 h 56.475 V 73.57 H 16.763 V 16.43 z M 77.237 47 H 86 v 6.75 h -8.763 V 47 z M 77.237 43 v -6.75 H 86 V 43 H 77.237 z M 77.237 32.25 V 25.5 H 86 v 6.75 H 77.237 z M 77.237 57.75 H 86 v 6.75 h -8.763 V 57.75 z M 86 21.5 h -8.763 v -5.07 H 86 V 21.5 z M 12.763 16.43 v 5.07 H 4 v -5.07 H 12.763 z M 4 68.5 h 8.763 v 5.07 H 4 V 68.5 z M 77.237 73.57 V 68.5 H 86 v 5.07 H 77.237 z" style="stroke: none; stroke-width: 1; stroke-dasharray: none; stroke-linecap: butt; stroke-linejoin: miter; stroke-miterlimit: 10; fill: rgb(33,230,193); fill-rule: nonzero; opacity: 1;" transform=" matrix(1 0 0 1 0 0) " stroke-linecap="round" />
	<path d="M 34.25 59.004 c -0.35 0 -0.7 -0.092 -1.012 -0.275 c -0.612 -0.359 -0.988 -1.016 -0.988 -1.725 V 32.996 c 0 -0.709 0.376 -1.366 0.988 -1.725 c 0.611 -0.36 1.367 -0.368 1.987 -0.021 l 21.5 12.004 c 0.633 0.353 1.025 1.021 1.025 1.746 s -0.393 1.393 -1.025 1.746 l -21.5 12.004 C 34.922 58.919 34.586 59.004 34.25 59.004 z M 36.25 36.403 v 17.193 L 51.647 45 L 36.25 36.403 z" style="stroke: none; stroke-width: 1; stroke-dasharray: none; stroke-linecap: butt; stroke-linejoin: miter; stroke-miterlimit: 10; fill: rgb(33,230,193); fill-rule: nonzero; opacity: 1;" transform=" matrix(1 0 0 1 0 0) " stroke-linecap="round" />
</g>
</svg>